<svg width="2187" height="2186" xmlns="http://www.w3.org/2000/svg" xmlns:xlink="http://www.w3.org/1999/xlink" overflow="hidden"><defs><clipPath id="clip0"><rect x="1107" y="145" width="2187" height="2186"/></clipPath></defs><g clip-path="url(#clip0)" transform="translate(-1107 -145)"><path d="M1109.5 1238C1109.5 635.733 1597.96 147.5 2200.5 147.5 2803.04 147.5 3291.5 635.733 3291.5 1238 3291.5 1840.27 2803.04 2328.5 2200.5 2328.5 1597.96 2328.5 1109.5 1840.27 1109.5 1238Z" stroke="#F2F2F2" stroke-width="4.58333" stroke-miterlimit="8" fill="#D9D9D9" fill-rule="evenodd"/><text fill="#FFFFFF" font-family="Malgun Gothic,Malgun Gothic_MSFontService,sans-serif" font-weight="700" font-size="596" transform="matrix(1 0 0 1 1681.62 1461)">360</text><path d="M1206.5 1168.56C1206.5 1241.55 1328.97 1305.3 1504.25 1323.54L1504.25 1300.92 1603.5 1405.25 1504.25 1499.42 1504.25 1476.79C1328.97 1458.54 1206.5 1394.8 1206.5 1321.81Z" fill="#FFFFFF" fill-rule="evenodd"/><path d="M1603.5 1161.75C1458.2 1161.75 1324.5 1193.75 1254.94 1245.19 1149.98 1167.57 1220.95 1070.35 1413.46 1028.03 1471.76 1015.22 1537.1 1008.5 1603.5 1008.5Z" fill="#CDCDCD" fill-rule="evenodd"/><path d="M1206.5 1168.56C1206.5 1241.55 1328.97 1305.3 1504.25 1323.54L1504.25 1300.92 1603.5 1405.25 1504.25 1499.42 1504.25 1476.79C1328.97 1458.54 1206.5 1394.8 1206.5 1321.81L1206.5 1168.56C1206.5 1080.16 1384.24 1008.5 1603.5 1008.5L1603.5 1161.75C1458.2 1161.75 1324.5 1193.75 1254.94 1245.19" stroke="#FFFFFF" stroke-width="4.58333" stroke-miterlimit="8" fill="none" fill-rule="evenodd"/><path d="M0 164.746C6.31474e-14 239.87 120.308 305.479 292.5 324.26L292.5 295.769 390 398.5 292.5 490.769 292.5 462.277C120.308 443.496 6.50931e-05 377.886 6.50931e-05 302.763Z" fill="#FFFFFF" fill-rule="evenodd" transform="matrix(-1 0 0 1 3187.5 1008.5)"/><path d="M390 138.017C237.852 138.017 99.5951 175.393 35.8636 233.754-54.3592 151.135 31.0531 53.2619 226.637 15.1496 277.857 5.16863 333.593-0.000106233 390-0.000106233Z" fill="#CDCDCD" fill-rule="evenodd" transform="matrix(-1 0 0 1 3187.5 1008.5)"/><path d="M0 164.746C6.31474e-14 239.87 120.308 305.479 292.5 324.26L292.5 295.769 390 398.5 292.5 490.769 292.5 462.277C120.308 443.496 6.50931e-05 377.886 6.50931e-05 302.763L0 164.746C0 73.7592 174.609-3.15737e-14 390-6.31474e-14L390 138.017C237.852 138.017 99.5951 175.393 35.8636 233.754" stroke="#FFFFFF" stroke-width="4.58333" stroke-miterlimit="8" fill="none" fill-rule="evenodd" transform="matrix(-1 0 0 1 3187.5 1008.5)"/></g></svg>