<?xml version="1.0" encoding="utf-8"?>
<!-- Generator: Adobe Illustrator 23.0.4, SVG Export Plug-In . SVG Version: 6.00 Build 0)  -->
<svg version="1.1" id="Layer_1" xmlns="http://www.w3.org/2000/svg" xmlns:xlink="http://www.w3.org/1999/xlink" x="0px" y="0px"
	 viewBox="0 0 100 100" style="enable-background:new 0 0 100 100;" xml:space="preserve">
<style type="text/css">
	.st0{fill:#D2D2D2;}
	.st1{fill:none;stroke:#FFFFFF;stroke-miterlimit:10;}
</style>
<circle class="st0" cx="50" cy="50" r="48"/>
<g>
	<g transform="translate(50 50) scale(0.69 0.69) rotate(0) translate(-50 -50)">
		<title>КУБ</title>
		<polygon class="st1" points="65.2,34.7 50.6,26.3 35.9,34.7 35.9,51.6 50.6,60.1 65.2,51.6 		"/>
		<line class="st1" x1="35.9" y1="34.7" x2="50.6" y2="43.2"/>
		<line class="st1" x1="50.6" y1="43.2" x2="65.2" y2="34.7"/>
		<line class="st1" x1="50.6" y1="43.2" x2="50.6" y2="60.1"/>
	</g>
</g>
<path class="st1" d="M80,63.4H20c-0.8,0-1.4-0.6-1.4-1.4V28.6c0-0.8,0.6-1.4,1.4-1.4H80c0.8,0,1.4,0.6,1.4,1.4V62
	C81.4,62.7,80.8,63.4,80,63.4z"/>
<line class="st1" x1="50.4" y1="63.4" x2="50.4" y2="72.8"/>
<line class="st1" x1="40.3" y1="72.5" x2="60.5" y2="72.5"/>
</svg>
