<?xml version="1.0" encoding="utf-8"?>
<!-- Generator: Adobe Illustrator 23.0.4, SVG Export Plug-In . SVG Version: 6.00 Build 0)  -->
<svg version="1.1" id="Layer_1" xmlns="http://www.w3.org/2000/svg" xmlns:xlink="http://www.w3.org/1999/xlink" x="0px" y="0px"
	 viewBox="0 0 100 100" style="enable-background:new 0 0 100 100;" xml:space="preserve">
<style type="text/css">
	.st0{fill:#1A1A1A;}
	.st1{fill:none;stroke:#1A1A1A;stroke-linecap:round;stroke-miterlimit:10;}
</style>
<g>
	<g>
		<path class="st0" d="M66.8,61.1c-0.2-0.2-0.5-0.3-0.8-0.1c-0.2,0.2-0.3,0.5-0.1,0.8l2.8,3.7c0.1,0.1,0.3,0.2,0.4,0.2
			c0.1,0,0.2,0,0.3-0.1c0.2-0.2,0.3-0.5,0.1-0.8L66.8,61.1z"/>
		<path class="st0" d="M76.3,68.6c0-0.3,0-0.6-0.4-1.1l-7.3-8.1c-0.5-0.5-1.7-0.8-2.6-0.8h-6.6c-0.3,0-0.6,0.2-0.6,0.6
			c0,0.3,0.2,0.6,0.6,0.6h1.9l5.3,9H30.2l6.3-9h4.4c0.3,0,0.6-0.2,0.6-0.6c0-0.3-0.2-0.6-0.6-0.6H34c-0.9,0-2.1,0.3-2.6,0.8
			l-7.3,8.1c-0.4,0.4-0.4,0.8-0.4,1.1c0,0,0,0,0,0.1v1.7c0,1.1,0.9,2.1,2.1,2.1h48.4c1.2,0,2.1-0.9,2.1-2.1L76.3,68.6
			C76.3,68.6,76.3,68.6,76.3,68.6z M62.6,59.7H66c0.8,0,1.6,0.3,1.8,0.4l7.3,8.1c0.1,0.1,0.1,0.2,0.1,0.2c0,0-0.3,0.2-1,0.2h-6.3
			L62.6,59.7z M25,68.3l7.3-8.1c0.2-0.2,0.9-0.4,1.8-0.4h1.2l-6.3,9h-3.1c-0.7,0-0.9-0.2-1-0.2C24.8,68.5,24.8,68.4,25,68.3z
			 M74.2,71.4H25.8c-0.5,0-1-0.4-1-1v-0.7c0.3,0.1,0.6,0.1,1,0.1h48.4c0.4,0,0.7,0,1-0.1v0.7C75.2,70.9,74.7,71.4,74.2,71.4z"/>
	</g>
	<g>
		<g transform="translate(50 50) scale(0.69 0.69) rotate(0) translate(-50 -50)">
			<title>КУБ</title>
			<polygon class="st1" points="71.4,30.5 50,18.1 28.6,30.5 28.6,55.1 50,67.5 71.4,55.1 			"/>
			<line class="st1" x1="28.6" y1="30.5" x2="50" y2="42.8"/>
			<line class="st1" x1="50" y1="42.8" x2="71.4" y2="30.4"/>
			<line class="st1" x1="50" y1="42.8" x2="50" y2="67.5"/>
		</g>
	</g>
</g>
</svg>
