<?xml version="1.0" encoding="utf-8"?>
<!-- Generator: Adobe Illustrator 23.0.4, SVG Export Plug-In . SVG Version: 6.00 Build 0)  -->
<svg version="1.1" id="Layer_1" xmlns="http://www.w3.org/2000/svg" xmlns:xlink="http://www.w3.org/1999/xlink" x="0px" y="0px"
	 viewBox="0 0 100 100" style="enable-background:new 0 0 100 100;" xml:space="preserve">
<style type="text/css">
	.st0{fill:#D2D2D2;}
	.st1{fill:#FFFFFF;}
</style>
<circle class="st0" cx="50" cy="50" r="48"/>
<g>
	<g transform="translate(50 50) scale(1.5 1.5) rotate(0) translate(-25 -25)">
    <path class="st1" d="M25.99 6c-9.95 0-17.99 8.06-17.99 18h-6l7.79 7.79.14.29 8.07-8.08h-6c0-7.73 6.27-14 14-14s14 6.27 14 14-6.27 14-14 14c-3.87 0-7.36-1.58-9.89-4.11l-2.83 2.83c3.25 3.26 7.74 5.28 12.71 5.28 9.95 0 18.01-8.06 18.01-18s-8.06-18-18.01-18zm-1.99 10v10l8.56 5.08 1.44-2.43-7-4.15v-8.5h-3z" opacity=".9"/>
	</g>
</g>
</svg>
