<?xml version="1.0" encoding="utf-8"?>
<!-- Generator: Adobe Illustrator 23.0.4, SVG Export Plug-In . SVG Version: 6.00 Build 0)  -->
<svg version="1.1" id="Layer_1" xmlns="http://www.w3.org/2000/svg" xmlns:xlink="http://www.w3.org/1999/xlink" x="0px" y="0px"
	 viewBox="0 0 100 100" style="enable-background:new 0 0 100 100;" xml:space="preserve">
<style type="text/css">
	.st0{fill:#D2D2D2;}
	.st1{fill:#FFFFFF;}
</style>
<circle class="st0" cx="50" cy="50" r="48"/>
<g>
	<g transform="translate(50 50) scale(0.69 0.69) rotate(0) translate(-50 -50)">
		<g>
			<g>
				<path class="st1" d="M99.2,50.4c0,1.2-1,2.1-2.1,2.1H7.9c-1.2,0-2.1-1-2.1-2.1c0-1,1-2.1,2.1-2.1h89
					C98.1,48.1,99.2,49.2,99.2,50.4z"/>
			</g>
		</g>
		<g>
			<path class="st1" d="M42.3,14.4c0,0.6-0.2,1-0.6,1.5L6.7,50l34,34.8c0.8,0.8,0.8,2.3,0,3.1c-0.8,0.8-2.3,0.8-3.1,0L2.1,51.5
				C1.7,51,1.5,50.6,1.5,50c0-0.6,0.2-1,0.6-1.5l36.5-35.8c0.8-0.8,2.3-0.8,3.1,0C42.1,13.3,42.3,13.7,42.3,14.4z"/>
		</g>
	</g>
</g>
</svg>
