<svg xmlns="http://www.w3.org/2000/svg" xmlns:xlink="http://www.w3.org/1999/xlink" width="100" height="100" viewBox="0 0 100 100"><g><g transform="translate(50 50) scale(0.69 0.69) rotate(0) translate(-50 -50)" style="fill:#1a1a1a"><svg fill="#1a1a1a" xmlns="http://www.w3.org/2000/svg" xmlns:xlink="http://www.w3.org/1999/xlink" version="1.1" x="0px" y="0px" viewBox="0 0 48 48" enable-background="new 0 0 48 48" xml:space="preserve"><g><g><path d="M47.6,24.2c0,0.6-0.5,1-1,1H3.8c-0.6,0-1-0.5-1-1s0.5-1,1-1h42.7C47.1,23.1,47.6,23.6,47.6,24.2z"></path></g></g><g><path d="M20.3,6.9c0,0.3-0.1,0.5-0.3,0.7L3.2,24l16.3,16.7c0.4,0.399,0.4,1.1,0,1.5c-0.4,0.399-1.1,0.399-1.5,0L1,24.7   c-0.2-0.2-0.3-0.4-0.3-0.7s0.1-0.5,0.3-0.7L18.5,6.1c0.4-0.4,1.1-0.4,1.5,0C20.2,6.4,20.3,6.6,20.3,6.9z"></path></g></svg></g></g></svg>