<?xml version="1.0" encoding="utf-8"?>
<!-- Generator: Adobe Illustrator 23.0.4, SVG Export Plug-In . SVG Version: 6.00 Build 0)  -->
<svg version="1.1" id="Layer_1" xmlns="http://www.w3.org/2000/svg" xmlns:xlink="http://www.w3.org/1999/xlink" x="0px" y="0px"
	 viewBox="0 0 100 100" style="enable-background:new 0 0 100 100;" xml:space="preserve">
<style type="text/css">
	.st0{stroke:#000000;stroke-miterlimit:10;}
	.st1{fill:none;stroke:#000000;stroke-miterlimit:10;}
</style>
<g>
	<g>
		<g transform="translate(50 50) scale(0.69 0.69) rotate(0) translate(-50 -50)">
			<title>КУБ</title>
			<polygon class="st0" points="60.2,55.7 50.1,49.9 40,55.7 40,67.4 50.1,73.2 60.2,67.4 			"/>
			<line class="st0" x1="40" y1="55.7" x2="50.1" y2="61.6"/>
			<line class="st0" x1="50.1" y1="61.6" x2="60.2" y2="55.7"/>
			<line class="st0" x1="50.1" y1="61.6" x2="50.1" y2="73.2"/>
		</g>
	</g>
	<g>
		<line class="st1" x1="50.1" y1="25.1" x2="50.1" y2="43.2"/>
		<line class="st1" x1="50.3" y1="24.8" x2="46.1" y2="29.1"/>
		<line class="st1" x1="54" y1="29.1" x2="49.7" y2="24.8"/>
	</g>
	<line class="st1" x1="50.1" y1="40.6" x2="50.1" y2="58.7"/>
	<line class="st1" x1="50.1" y1="57.6" x2="37.8" y2="64.7"/>
	<line class="st1" x1="50.1" y1="57.7" x2="62.2" y2="64.7"/>
	<g>
		<line class="st1" x1="22.3" y1="73.7" x2="38" y2="64.7"/>
		<line class="st1" x1="21.8" y1="73.6" x2="27.7" y2="75.2"/>
		<line class="st1" x1="23.8" y1="68.4" x2="22.2" y2="74.2"/>
	</g>
	<g>
		<line class="st1" x1="77.8" y1="73.6" x2="62.2" y2="64.7"/>
		<line class="st1" x1="78" y1="74" x2="76.4" y2="68.2"/>
		<line class="st1" x1="72.5" y1="75" x2="78.2" y2="73.4"/>
	</g>
</g>
</svg>
