<svg xmlns="http://www.w3.org/2000/svg" xmlns:xlink="http://www.w3.org/1999/xlink" width="100" height="100" viewBox="0 0 100 100"><g><g transform="translate(50 50) scale(0.69 0.69) rotate(0) translate(-50 -50)" style="fill:#1A1A1A"><svg fill="#1A1A1A" xmlns="http://www.w3.org/2000/svg" viewBox="0 0 100 100" x="0px" y="0px"><title>Sacred geometry RTE</title><g data-name="Layer 2"><path d="M50,4A46,46,0,1,0,96,50,46.00064,46.00064,0,0,0,50,4ZM93.90973,47.30164l-.35913.2832a5.51959,5.51959,0,0,1,.40314.58588C93.97864,48.77814,94,49.38647,94,50v.00092a3.28068,3.28068,0,0,1-.72137,1.94592,13.4228,13.4228,0,0,1-5.21174,3.67279,63.55915,63.55915,0,0,1-15.82678,4.31415c-2.97284.47827-6.17462.85827-9.53515,1.13659.00323-.04547.00763-.08917.0108-.1347l-.99756-.0694c-.00684.09815-.01623.19245-.02325.29029-3.726.28167-7.64734.43237-11.69495.43231-3.86456.00049-7.61475-.13709-11.18964-.395-.25805-3.57745-.39929-7.3255-.39923-11.19391-.00049-4.04919.15308-7.969.43524-11.697.03382-.00244.06623-.00574.1001-.00812l-.04687-.66162a103.947,103.947,0,0,1,3.16156-19.18365A34.24306,34.24306,0,0,1,45.93372,9.088a9.17386,9.17386,0,0,1,2.11944-2.36664A3.27882,3.27882,0,0,1,50,6c.6098,0,1.21442.02142,1.81818.046a5.22928,5.22928,0,0,1,.45959.2981l.20105-.27051a43.97826,43.97826,0,0,1,41.43091,41.228ZM18.88739,18.88739A43.8572,43.8572,0,0,1,45.642,6.21649a18.55614,18.55614,0,0,0-3.07831,4.88013,65.41441,65.41441,0,0,0-4.472,16.34558c-.50262,3.12518-.89911,6.48663-1.18316,10.01532-.34333.029-.69464.05286-1.03449.08417l.09168.99579c.28338-.02613.5769-.04566.86279-.07019-.27075,3.68493-.41724,7.54711-.4173,11.53271.00049,3.806.13324,7.49982.38056,11.03345a102.39977,102.39977,0,0,1-18.342-3.09467,34.2437,34.2437,0,0,1-9.3617-3.8725,9.175,9.175,0,0,1-2.36664-2.11944A3.27921,3.27921,0,0,1,6,50c0-.6098.02142-1.21442.046-1.81818a5.22928,5.22928,0,0,1,.2981-.45959l-.27051-.20105A43.85,43.85,0,0,1,18.88739,18.88739ZM6.21649,54.35791a18.55529,18.55529,0,0,0,4.88019,3.07843,65.41624,65.41624,0,0,0,16.34558,4.472c2.97351.47821,6.16388.85839,9.50513,1.13946a104.97932,104.97932,0,0,0,3.18774,19.0412,36.09386,36.09386,0,0,0,4.13043,9.92621A13.55365,13.55365,0,0,0,45.64905,93.784,43.99948,43.99948,0,0,1,6.21649,54.35791ZM81.11261,81.11255A43.849,43.849,0,0,1,52.69843,93.90973l-.28327-.35919a5.51874,5.51874,0,0,1-.586.4032C51.2218,93.97858,50.61353,94,50,94a3.27927,3.27927,0,0,1-1.94684-.72144,13.42173,13.42173,0,0,1-3.67279-5.21167,63.55545,63.55545,0,0,1-4.31415-15.82678c-.45446-2.82489-.81927-5.858-1.09387-9.03528,3.53363.24744,7.22241.38392,11.02765.384,3.98578-.00049,7.84918-.14545,11.53357-.416-.01917.22309-.03394.45294-.054.67456l.99591.09033c.02521-.27764.044-.56512.06763-.84509a105.86272,105.86272,0,0,0,19.546-3.22778,36.09537,36.09537,0,0,0,9.92621-4.13049,13.54852,13.54852,0,0,0,1.76874-1.38349A43.85732,43.85732,0,0,1,81.11261,81.11255Z"></path><path d="M29.04028,39.36249l-.1466-.9892q-1.52307.22567-2.97632.48254l.174.98475Q27.52948,39.58651,29.04028,39.36249Z"></path><path d="M33.98206,38.7348l-.10639-.99432q-1.52289.16287-2.992.35535l.12982.99151Q32.46983,38.89674,33.98206,38.7348Z"></path><path d="M68.92871,38.07141q-1.46878-.19-2.99249-.35095l-.10492.99451q1.51145.15948,2.96912.3482Z"></path><path d="M10.05774,44.7652l-.48419-.875A16.43983,16.43983,0,0,0,7.0072,45.60889l.64044.768A15.45046,15.45046,0,0,1,10.05774,44.7652Z"></path><path d="M24.13477,40.20667l-.19416-.981v.00006q-1.52234.30129-2.95086.63641l.22833.97357Q22.62753,40.50511,24.13477,40.20667Z"></path><path d="M14.55365,42.77466l-.34015-.94037q-1.51236.547-2.81787,1.14233l.41528.90967Q13.072,43.31061,14.55365,42.77466Z"></path><path d="M19.28949,41.31512l-.25464-.967q-1.51959.40019-2.9068.83887l.30164.95343Q17.79,41.71009,19.28949,41.31512Z"></path><path d="M45.89258,36.96265l.02521.99969q1.48233-.03735,2.99145-.04761l-.00671-1Q47.38467,36.9249,45.89258,36.96265Z"></path><path d="M43.8866,37.02594q-1.52032.05758-3.00751.14307l.05725.99835q1.47693-.08478,2.9881-.14215l-.03784-.99933Z"></path><path d="M73.89612,38.82306q-1.453-.254-2.977-.47736l-.145.98944q1.51.22119,2.94983.473Z"></path><path d="M50.90338,37.91357q1.50834.00834,2.99121.04419l.02405-.99975q-1.49168-.03589-3.00977-.04437Z"></path><path d="M78.82562,39.81909q-1.42858-.33161-2.95208-.63l-.1922.98138q1.50623.295,2.91821.62268Z"></path><path d="M83.69061,41.12994q-1.38776-.43377-2.90905-.82989l-.252.96771q1.49826.39019,2.86273.81665Z"></path><path d="M92.84137,45.48468a17.11918,17.11918,0,0,0-2.58368-1.68689l-.47681.879A16.131,16.131,0,0,1,92.21344,46.263Z"></path><path d="M55.888,38.01825q1.51053.05539,2.98822.13849l.056-.99841v-.00007q-1.4869-.08349-3.00763-.13934Z"></path><path d="M88.43005,42.89764q-1.30764-.58731-2.82275-1.12774l-.33618.94177q1.47977.52826,2.7492,1.09821Z"></path><path d="M58.68481,19.28949l.96705-.25464q-.40019-1.51959-.83887-2.9068l-.95343.30164Q58.28994,17.79,58.68481,19.28949Z"></path><path d="M59.79333,24.13477l.981-.19416q-.30129-1.52234-.63647-2.95086l-.97357.22833Q59.49483,22.62753,59.79333,24.13477Z"></path><path d="M60.63745,29.04022l.9892-.14654q-.22567-1.52318-.48248-2.97632l-.98475.174Q60.41349,27.52948,60.63745,29.04022Z"></path><path d="M55.2348,10.05774l.875-.48419A16.44552,16.44552,0,0,0,54.39111,7.0072l-.768.64044A15.45468,15.45468,0,0,1,55.2348,10.05774Z"></path><path d="M53.737,92.21344l.77826.62793a17.11926,17.11926,0,0,0,1.687-2.58368l-.879-.47681A16.134,16.134,0,0,1,53.737,92.21344Z"></path><path d="M58.16565,14.2135h.00006q-.547-1.51227-1.14233-2.81787l-.90967.41528q.57569,1.26105,1.11157,2.74274Z"></path><path d="M61.2652,33.98206l.99432-.10639q-.163-1.52289-.35541-2.992l-.99151.12976Q61.1033,32.46986,61.2652,33.98206Z"></path><path d="M61.46246,35.96564c.04145.44989.07392.91357.11145,1.36963-.21447-.01587-.42254-.03608-.63824-.05109l-.0694.99762c.267.01855.52478.04333.78986.06323.0152.20221.03454.39807.049.60144l.9975-.07074c-.01081-.1521-.02539-.2984-.03663-.44989.3927.03229.79334.05933,1.18146.09455l.09033-.99591c-.44482-.04035-.90326-.07184-1.354-.1084-.04175-.51429-.07886-1.03553-.12549-1.54212Z"></path><path d="M61.83264,40.9364q.08469,1.47684.14209,2.988l.99933-.03784q-.05758-1.52032-.14307-3.00751Z"></path><path d="M61.84326,58.87616l.99841.05609q.0835-1.4869.13941-3.00763l-.99933-.03662Q61.92636,57.39853,61.84326,58.87616Z"></path><path d="M62.04224,53.89459l.99969.02405q.0359-1.49168.04443-3.00977l-1-.00549Q62.078,52.41172,62.04224,53.89459Z"></path><path d="M57.91559,83.39221l.95447.29834q.43368-1.38766.82989-2.909l-.96771-.252Q58.342,82.02771,57.91559,83.39221Z"></path><path d="M63.08521,48.90259q-.01017-1.51785-.04792-3.01l-.99969.02521q.03744,1.48233.04761,2.99145Z"></path><path d="M60.19183,73.72394l.98511.17218q.25387-1.453.4773-2.977l-.98945-.145Q60.4436,72.28409,60.19183,73.72394Z"></path><path d="M60.93683,68.80042l.9917.12829q.19006-1.46887.35095-2.99249l-.99445-.105Q61.12546,67.34278,60.93683,68.80042Z"></path><path d="M59.20679,78.59955l.97412.22607v-.00006q.33151-1.42858.62994-2.95209l-.98132-.19213Q59.53454,77.18746,59.20679,78.59955Z"></path><path d="M56.19012,88.02026l.91217.40973q.58732-1.30755,1.12775-2.82275l-.94177-.33618Q56.76011,86.75083,56.19012,88.02026Z"></path></g></svg></g></g></svg>