<svg xmlns="http://www.w3.org/2000/svg" xmlns:xlink="http://www.w3.org/1999/xlink" width="100" height="100" viewBox="0 0 100 100"><g><g transform="translate(50 50) scale(0.69 0.69) rotate(0) translate(-50 -50)" style="fill:#1A1A1A"><svg fill="#1A1A1A" xmlns="http://www.w3.org/2000/svg" xmlns:xlink="http://www.w3.org/1999/xlink" viewBox="0 0 64 64" version="1.1" x="0px" y="0px"><title>11</title><desc>Created with Sketch.</desc><g stroke="none" stroke-width="1" fill="none" fill-rule="evenodd"><g fill-rule="nonzero" fill="#1A1A1A"><path d="M22.3864725,46 L31,46 L31,33 L21.0067439,33 C21.0698139,37.6740512 21.5722382,42.0898247 22.3864751,46.000002 Z M22.8406632,48 C24.7161535,55.602614 27.7970444,60.9207175 31,61.8535961 L31,48 L22.8406632,48 Z M41.6135249,46.000002 C42.4277618,42.0898247 42.9301861,37.6740512 42.9932561,33 L33,33 L33,46 L41.6135275,46 Z M41.1593368,48 L33,48 L33,61.8535961 C36.2029556,60.9207175 39.2838465,55.602614 41.1593368,48 Z M5.46018638,46 L20.2096806,46 C19.4774436,42.0595614 19.0581558,37.6604168 19.0056237,33 L2.01635265,33 C2.1697756,37.6844154 3.39713981,42.0971684 5.46018638,46 Z M6.61824352,48 C11.0450176,55.0077337 18.2938048,60.0550053 26.7681654,61.5453751 C24.0854283,58.8379873 21.9611666,54.0519288 20.6168921,48 L6.61824352,48 Z M58.5398136,46 C60.6028602,42.0971684 61.8302244,37.6844154 61.9836473,33 L44.9943763,33 C44.9418442,37.6604168 44.5225564,42.0595614 43.7903194,46 L58.5398136,46 Z M57.3817565,48 L43.3831079,48 C42.0388334,54.0519288 39.9145717,58.8379873 37.2318346,61.5453751 C45.7061952,60.0550053 52.9549824,55.0077337 57.3817565,48 Z M22.3864751,17.999998 C21.5722382,21.9101753 21.0698139,26.3259488 21.0067439,31 L31,31 L31,18 L22.3864725,18 Z M22.8406632,16 L31,16 L31,2.14640395 C27.7970444,3.07928251 24.7161535,8.39738596 22.8406632,16 Z M41.6135275,18 L33,18 L33,31 L42.9932561,31 C42.9301861,26.3259488 42.4277618,21.9101753 41.6135249,17.999998 Z M41.1593368,16 C39.2838465,8.39738596 36.2029556,3.07928251 33,2.14640395 L33,16 L41.1593368,16 Z M5.46018638,18 C3.39713981,21.9028316 2.1697756,26.3155846 2.01635265,31 L19.0056237,31 C19.0581558,26.3395832 19.4774436,21.9404386 20.2096806,18 L5.46018638,18 Z M6.61824352,16 L20.6168921,16 C21.9611666,9.94807116 24.0854283,5.16201269 26.7681654,2.45462486 C18.2938048,3.94499466 11.0450176,8.99226627 6.61824352,16 Z M58.5398136,18 L43.7903194,18 C44.5225564,21.9404386 44.9418442,26.3395832 44.9943763,31 L61.9836473,31 C61.8302244,26.3155846 60.6028602,21.9028316 58.5398136,18 Z M57.3817565,16 C52.9549824,8.99226627 45.7061952,3.94499466 37.2318346,2.45462486 C39.9145717,5.16201269 42.0388334,9.94807116 43.3831079,16 L57.3817565,16 Z M31,0.0153278986 L31,0 L33,0 L33,0.0153278986 C50.2104024,0.543623703 64,14.6614453 64,32 C64,49.673112 49.673112,64 32,64 C14.326888,64 0,49.673112 0,32 C0,14.6614453 13.7895976,0.543623703 31,0.0153278986 Z"></path></g></g></svg></g></g></svg>