<svg xmlns="http://www.w3.org/2000/svg" xmlns:xlink="http://www.w3.org/1999/xlink" width="100" height="100" viewBox="0 0 100 100"><g><g transform="translate(50 50) scale(0.69 0.69) rotate(0) translate(-50 -50)" style="fill:#1A1A1A"><svg fill="#1A1A1A" xmlns="http://www.w3.org/2000/svg" viewBox="0 0 66 66" x="0px" y="0px"><path fill="#1A1A1A" fill-rule="evenodd" d="M570,723 C551.774603,723 537,708.225397 537,690 C537,671.774603 551.774603,657 570,657 C588.225397,657 603,671.774603 603,690 C603,708.225397 588.225397,723 570,723 Z M584.993427,691 L584.993427,691 C584.819183,704.236665 581.195211,715.565066 575.887067,720.441726 C589.875748,717.752496 600.519575,705.660463 600.984176,691 L584.993427,691 Z M564.112933,720.441726 C558.804789,715.565066 555.180817,704.236665 555.006573,691 L539.015824,691 C539.480425,705.660463 550.124252,717.752496 564.112933,720.441726 Z M557.006844,691 L557.006844,691.000005 C557.235887,707.713061 563.181731,721 570,721 C576.818269,721 582.764113,707.713061 582.993156,691 L557.006844,691 Z M557.006844,688.999995 L557.006844,689 L582.993156,688.999995 C582.764113,672.286939 576.818269,659 570,659 C563.181731,659 557.235887,672.286939 557.006844,688.999995 Z M575.887067,659.558274 C581.195211,664.434934 584.819183,675.763335 584.993427,689 L600.984176,689 C600.519575,674.339537 589.875748,662.247504 575.887067,659.558274 Z M555.006573,689 L555.006573,689 C555.180817,675.763335 558.804789,664.434934 564.112933,659.558274 C550.124252,662.247504 539.480425,674.339537 539.015824,689 L555.006573,689 Z" transform="translate(-537 -657)"></path></svg></g></g></svg>