<svg xmlns="http://www.w3.org/2000/svg" xmlns:xlink="http://www.w3.org/1999/xlink" width="100" height="100" viewBox="0 0 100 100"><g><g transform="translate(50 50) scale(0.69 0.69) rotate(0) translate(-50 -50)" style="fill:#1A1A1A"><svg fill="#1A1A1A" xmlns="http://www.w3.org/2000/svg" xmlns:xlink="http://www.w3.org/1999/xlink" version="1.1" x="0px" y="0px" viewBox="0 0 100 100" enable-background="new 0 0 100 100" xml:space="preserve"><g><path d="M74.4009399,66.1410065c-0.2650757-0.3538818-0.7683716-0.4281616-1.1255493-0.1657715   c-0.3567505,0.2629395-0.4316406,0.7628784-0.1670532,1.1168213l4.0574951,5.4278564   c0.1582031,0.2109375,0.4007568,0.3226318,0.6469116,0.3226318c0.1665649,0,0.3347168-0.0508423,0.4787598-0.1569214   c0.3566895-0.2629395,0.4315186-0.7628174,0.1669922-1.1166992L74.4009399,66.1410065z"></path><path d="M88.0836182,76.9739532c0.0427856-0.3861694-0.0394897-0.9290771-0.5790405-1.5304565l-10.545105-11.7547035   c-0.6918945-0.7712402-2.4066772-1.1744995-3.7433472-1.1744995h-9.583313c-0.4442139,0-0.8045044,0.3575439-0.8045044,0.7982178   c0,0.4407349,0.3602905,0.7981606,0.8045044,0.7981606h2.8018188l7.7033081,12.984314H21.3517456l9.1034546-12.984314h6.3607788   c0.4440918,0,0.8045044-0.3574257,0.8045044-0.7981606c0-0.4406738-0.3604126-0.7982178-0.8045044-0.7982178H26.7837524   c-1.3366089,0-3.0514526,0.4032593-3.7433472,1.1744995L12.4954224,75.4434967   c-0.5397949,0.6015625-0.6220093,1.1445923-0.5791016,1.5308228c-0.0026245,0.026062-0.0153809,0.048645-0.0153809,0.0754395   v2.4959717c0,1.6561279,1.3575439,3.0030518,3.0268555,3.0030518h70.1443481c1.6692505,0,3.0269165-1.3469238,3.0269165-3.0030518   v-2.4959717C88.0990601,77.0228424,88.0862427,77.0001373,88.0836182,76.9739532z M68.3018188,64.110672h4.9143066   c1.1831665,0,2.3135376,0.3851318,2.5419312,0.6392212l10.5449219,11.7546997   c0.1765137,0.1969604,0.1870117,0.2998657,0.1870117,0.2998657c-0.0339966,0.036377-0.3933105,0.2905273-1.3869629,0.2905273   H76.005249L68.3018188,64.110672z M13.6969604,76.5045929l10.5449219-11.7546997   c0.2283325-0.2540894,1.3586426-0.6392212,2.5418701-0.6392212h1.7114868l-9.1035156,12.984314h-4.4954224   c-0.9674072,0-1.3334961-0.2411499-1.390564-0.3165283C13.515625,76.7753448,13.5444946,76.6750641,13.6969604,76.5045929z    M85.0721436,80.9523468H14.9277954c-0.7821045,0-1.4178467-0.6307983-1.4178467-1.4066162v-1.022522   c0.3996582,0.1091309,0.8623047,0.1681519,1.3863525,0.1681519h70.2067261c0.524292,0,0.9871826-0.059082,1.3869629-0.1682739   v1.022644C86.4899902,80.3215485,85.854126,80.9523468,85.0721436,80.9523468z"></path><path d="M27.6720581,55.4006462c0.0400391,0.2315674,0.1755371,0.4380493,0.3843994,0.5576782l0.0055542,0.0031738   c0.0002441,0.0001831,0.0006104,0.0003662,0.0008545,0.0004883l21.5345459,12.3356361   c0.1246948,0.071228,0.2634277,0.1071167,0.4022827,0.1071167c0.1387939,0,0.2775269-0.0358887,0.4022217-0.1071167   l21.5346069-12.3356361c0.0002441-0.0001221,0.0005493-0.0003052,0.0008545-0.0004883l0.0055542-0.0031738   c0.2090454-0.119751,0.3445435-0.3264771,0.3844604-0.5581665c0.0040283-0.0234375,0.0073853-0.0455933,0.0092163-0.0691528   c0.00177-0.0215454,0.0085449-0.0419922,0.0085449-0.0638428V30.5884514c0-0.0218506-0.0067749-0.0423584-0.0085449-0.0639038   c-0.0018311-0.0235596-0.005188-0.0457153-0.0092163-0.0691528c-0.0322876-0.1873779-0.1292114-0.354187-0.2763062-0.475647   c-0.0192261-0.0158691-0.0376587-0.0303955-0.0581055-0.0443115c-0.0174561-0.0119019-0.0314941-0.0275269-0.0500488-0.038147   L50.4019165,17.5579338c-0.2493286-0.142334-0.5551147-0.142334-0.8045044,0L28.0564575,29.8972893   c-0.0184326,0.0105591-0.0323486,0.026062-0.0496826,0.0379028c-0.020813,0.0141602-0.0396729,0.0289307-0.0592041,0.045105   c-0.1465454,0.1213379-0.2432251,0.2877197-0.2755127,0.4746094c-0.0040894,0.0237427-0.0075073,0.0462036-0.0093994,0.0700073   c-0.00177,0.0214844-0.0084839,0.0418091-0.0084839,0.0635376v24.6787109c0,0.0217285,0.0067139,0.0420532,0.0084839,0.0634766   C27.6645508,55.3543816,27.6679688,55.3769035,27.6720581,55.4006462z M48.3908691,42.9278069L29.2631836,53.8847771V31.9708366   L48.3908691,42.9278069z M49.9996948,66.6845245L30.067688,55.2670403l19.9320068-11.4176636l19.9318848,11.4176636   L49.9996948,66.6845245z M70.736084,53.884655L51.6085205,42.9278069L70.736084,31.9709587V53.884655z M49.9996948,19.171032   l19.9319458,11.4174805L49.9996948,42.006237L30.067627,30.5885124L49.9996948,19.171032z"></path></g></svg></g></g></svg>