<svg xmlns="http://www.w3.org/2000/svg" xmlns:xlink="http://www.w3.org/1999/xlink" width="100" height="100" viewBox="0 0 100 100"><g><g transform="translate(50 50) scale(0.69 0.69) rotate(0) translate(-50 -50)" style="fill:#1a1a1a"><svg fill="#1a1a1a" xmlns="http://www.w3.org/2000/svg" xmlns:xlink="http://www.w3.org/1999/xlink" version="1.1" x="0px" y="0px" viewBox="0 0 48 48" enable-background="new 0 0 48 48" xml:space="preserve"><g><path d="M46.1,25.1H1.7c-0.5,0-1-0.399-1-1s0.4-1,1-1h44.5c0.5,0,1,0.4,1,1S46.7,25.1,46.1,25.1z"></path></g><g><path d="M23.9,47.3c-0.5,0-1-0.399-1-1V1.9c0-0.5,0.4-1,1-1s1,0.4,1,1v44.5C24.9,46.9,24.4,47.3,23.9,47.3z"></path></g></svg></g></g></svg>