<?xml version="1.0" encoding="utf-8"?>
<!-- Generator: Adobe Illustrator 23.0.4, SVG Export Plug-In . SVG Version: 6.00 Build 0)  -->
<svg version="1.1" id="Layer_1" xmlns="http://www.w3.org/2000/svg" xmlns:xlink="http://www.w3.org/1999/xlink" x="0px" y="0px"
	 viewBox="0 0 100 100" style="enable-background:new 0 0 100 100;" xml:space="preserve">
<g>
	<g transform="translate(50 50) scale(0.69 0.69) rotate(0) translate(-50 -50)">
		<path d="M50,82.9c-2.7,0-4.9,2.2-4.9,4.9c0,2.7,2.2,4.9,4.9,4.9c2.7,0,5-2.2,5-4.9C54.9,85.1,52.7,82.9,50,82.9z"/>
		<path d="M29.1,32.8c1.3,0,2.3-1,2.3-2.3c0-10.2,8.3-18.6,18.5-18.6c10.2,0,18.6,8.3,18.6,18.6C68.5,40.7,60.2,49,50,49
			c-1.3,0-2.3,1-2.3,2.3v14.6c0,1.3,1,2.3,2.3,2.3c1.3,0,2.3-1,2.3-2.3V53.5C64,52.4,73.2,42.5,73.2,30.5C73.2,17.6,62.8,7.2,50,7.2
			c-12.8,0-23.2,10.4-23.2,23.2C26.8,31.7,27.8,32.8,29.1,32.8z"/>
	</g>
</g>
</svg>
