<?xml version="1.0" encoding="utf-8"?>
<!-- Generator: Adobe Illustrator 23.0.4, SVG Export Plug-In . SVG Version: 6.00 Build 0)  -->
<svg version="1.1" id="Layer_1" xmlns="http://www.w3.org/2000/svg" xmlns:xlink="http://www.w3.org/1999/xlink" x="0px" y="0px"
	 viewBox="0 0 100 100" style="enable-background:new 0 0 100 100;" xml:space="preserve">
<style type="text/css">
	.st0{fill:#D2D2D2;}
	.st1{fill:#FFFFFF;}
</style>
<circle class="st0" cx="50" cy="50" r="48"/>
<g>
	<g transform="translate(50 50) scale(0.69 0.69) rotate(0) translate(-50 -50)">
		<g>
			<g>
				<path class="st1" d="M1.5,50.4c0-1.3,1-2.1,2.1-2.1h89c1.2,0,2.1,1,2.1,2.1c0,1-1,2.1-2.1,2.1h-89C2.5,52.5,1.5,51.5,1.5,50.4z"
					/>
			</g>
		</g>
		<g>
			<path class="st1" d="M58.3,86.2c0-0.6,0.2-1,0.6-1.5l34.8-34l-34-35c-0.8-0.8-0.8-2.3,0-3.1c0.8-0.8,2.3-0.8,3.1,0l35.6,36.5
				c0.4,0.4,0.6,0.8,0.6,1.5s-0.2,1-0.6,1.5L61.9,87.9c-0.8,0.8-2.3,0.8-3.1,0C58.5,87.5,58.3,86.9,58.3,86.2z"/>
		</g>
	</g>
</g>
</svg>
