<?xml version="1.0" encoding="utf-8"?>
<!-- Generator: Adobe Illustrator 23.0.4, SVG Export Plug-In . SVG Version: 6.00 Build 0)  -->
<svg version="1.1" id="Layer_1" xmlns="http://www.w3.org/2000/svg" xmlns:xlink="http://www.w3.org/1999/xlink" x="0px" y="0px"
	 viewBox="0 0 100 100" style="enable-background:new 0 0 100 100;" xml:space="preserve">
<style type="text/css">
	.st0{fill:#1A1A1A;}
</style>
<g>
	<g transform="translate(50 50) scale(0.69 0.69) rotate(0) translate(-50 -50)">
		<title>Sacred geometry RTE</title>
		<g>
			<path class="st0" d="M50,4C24.6,4,4,24.6,4,50s20.6,46,46,46s46-20.6,46-46C96,24.6,75.4,4,50,4z M93.9,47.3l-0.4,0.3
				c0.1,0.2,0.3,0.4,0.4,0.6c0,0.6,0,1.2,0,1.8v0c0,0.7-0.3,1.4-0.7,1.9c-1.4,1.6-3.2,2.9-5.2,3.7c-5.1,2.1-10.4,3.6-15.8,4.3
				c-3,0.5-6.2,0.9-9.5,1.1c0,0,0-0.1,0-0.1l-1-0.1c0,0.1,0,0.2,0,0.3C58,61.4,54,61.6,50,61.6c-3.9,0-7.6-0.1-11.2-0.4
				c-0.3-3.6-0.4-7.3-0.4-11.2c0-4,0.2-8,0.4-11.7c0,0,0.1,0,0.1,0l0-0.7c0.5-6.5,1.5-12.9,3.2-19.2c0.8-3.3,2.1-6.5,3.9-9.4
				c0.6-0.9,1.3-1.7,2.1-2.4C48.6,6.3,49.3,6,50,6c0.6,0,1.2,0,1.8,0c0.2,0.1,0.3,0.2,0.5,0.3l0.2-0.3C74.7,7.3,92.6,25,93.9,47.3
				L93.9,47.3z M18.9,18.9c7.2-7.2,16.6-11.7,26.8-12.7c-1.3,1.5-2.3,3.1-3.1,4.9c-2.2,5.2-3.7,10.7-4.5,16.3
				c-0.5,3.1-0.9,6.5-1.2,10c-0.3,0-0.7,0.1-1,0.1l0.1,1c0.3,0,0.6,0,0.9-0.1c-0.3,3.7-0.4,7.5-0.4,11.5c0,3.8,0.1,7.5,0.4,11
				c-6.2-0.5-12.3-1.5-18.3-3.1c-3.3-0.8-6.5-2.1-9.4-3.9c-0.9-0.6-1.7-1.3-2.4-2.1C6.3,51.4,6,50.7,6,50c0-0.6,0-1.2,0-1.8
				c0.1-0.2,0.2-0.3,0.3-0.5l-0.3-0.2C6.7,36.7,11.2,26.5,18.9,18.9z M6.2,54.4c1.5,1.3,3.1,2.3,4.9,3.1c5.2,2.2,10.7,3.7,16.3,4.5
				c3,0.5,6.2,0.9,9.5,1.1c0.5,6.4,1.5,12.8,3.2,19c0.9,3.5,2.3,6.8,4.1,9.9c0.4,0.6,0.9,1.2,1.4,1.8C24.8,91.7,8.3,75.2,6.2,54.4z
				 M81.1,81.1c-7.6,7.6-17.7,12.2-28.4,12.8l-0.3-0.4c-0.2,0.1-0.4,0.3-0.6,0.4c-0.6,0-1.2,0-1.8,0c-0.7,0-1.4-0.3-1.9-0.7
				c-1.6-1.4-2.9-3.2-3.7-5.2c-2.1-5.1-3.6-10.4-4.3-15.8c-0.5-2.8-0.8-5.9-1.1-9c3.5,0.2,7.2,0.4,11,0.4c4,0,7.8-0.1,11.5-0.4
				c0,0.2,0,0.5-0.1,0.7l1,0.1c0-0.3,0-0.6,0.1-0.8c6.6-0.5,13.1-1.5,19.5-3.2c3.5-0.9,6.8-2.3,9.9-4.1c0.6-0.4,1.2-0.9,1.8-1.4
				C92.8,64.5,88.3,73.9,81.1,81.1z"/>
			<path class="st0" d="M29,39.4l-0.1-1c-1,0.2-2,0.3-3,0.5l0.2,1C27.1,39.7,28,39.5,29,39.4z"/>
			<path class="st0" d="M34,38.7l-0.1-1c-1,0.1-2,0.2-3,0.4l0.1,1C32,39,33,38.8,34,38.7z"/>
			<path class="st0" d="M68.9,38.1c-1-0.1-2-0.2-3-0.4l-0.1,1c1,0.1,2,0.2,3,0.3L68.9,38.1z"/>
			<path class="st0" d="M10.1,44.8l-0.5-0.9C8.7,44.4,7.8,45,7,45.6l0.6,0.8C8.4,45.8,9.2,45.2,10.1,44.8z"/>
			<path class="st0" d="M24.1,40.2l-0.2-1v0c-1,0.2-2,0.4-3,0.6l0.2,1C22.2,40.6,23.1,40.4,24.1,40.2z"/>
			<path class="st0" d="M14.6,42.8l-0.3-0.9c-1,0.4-1.9,0.7-2.8,1.1l0.4,0.9C12.7,43.5,13.6,43.1,14.6,42.8z"/>
			<path class="st0" d="M19.3,41.3l-0.3-1c-1,0.3-2,0.5-2.9,0.8l0.3,1C17.3,41.9,18.3,41.6,19.3,41.3z"/>
			<path class="st0" d="M45.9,37l0,1c1,0,2,0,3,0l0-1C47.9,36.9,46.9,36.9,45.9,37z"/>
			<path class="st0" d="M43.9,37c-1,0-2,0.1-3,0.1l0.1,1c1-0.1,2-0.1,3-0.1L43.9,37L43.9,37z"/>
			<path class="st0" d="M73.9,38.8c-1-0.2-2-0.3-3-0.5l-0.1,1c1,0.1,2,0.3,2.9,0.5L73.9,38.8z"/>
			<path class="st0" d="M50.9,37.9c1,0,2,0,3,0l0-1c-1,0-2,0-3,0L50.9,37.9z"/>
			<path class="st0" d="M78.8,39.8c-1-0.2-1.9-0.4-3-0.6l-0.2,1c1,0.2,2,0.4,2.9,0.6L78.8,39.8z"/>
			<path class="st0" d="M83.7,41.1c-0.9-0.3-1.9-0.6-2.9-0.8l-0.3,1c1,0.3,2,0.5,2.9,0.8L83.7,41.1z"/>
			<path class="st0" d="M92.8,45.5c-0.8-0.6-1.7-1.2-2.6-1.7l-0.5,0.9c0.9,0.5,1.7,1,2.4,1.6L92.8,45.5z"/>
			<path class="st0" d="M55.9,38c1,0,2,0.1,3,0.1l0.1-1v0c-1-0.1-2-0.1-3-0.1L55.9,38z"/>
			<path class="st0" d="M88.4,42.9c-0.9-0.4-1.8-0.8-2.8-1.1l-0.3,0.9c1,0.4,1.9,0.7,2.7,1.1L88.4,42.9z"/>
			<path class="st0" d="M58.7,19.3l1-0.3c-0.3-1-0.5-2-0.8-2.9l-1,0.3C58.1,17.3,58.4,18.3,58.7,19.3z"/>
			<path class="st0" d="M59.8,24.1l1-0.2c-0.2-1-0.4-2-0.6-3l-1,0.2C59.4,22.2,59.6,23.1,59.8,24.1z"/>
			<path class="st0" d="M60.6,29l1-0.1c-0.2-1-0.3-2-0.5-3l-1,0.2C60.3,27.1,60.5,28,60.6,29z"/>
			<path class="st0" d="M55.2,10.1l0.9-0.5C55.6,8.7,55,7.8,54.4,7l-0.8,0.6C54.2,8.4,54.8,9.2,55.2,10.1z"/>
			<path class="st0" d="M53.7,92.2l0.8,0.6c0.6-0.8,1.2-1.7,1.7-2.6l-0.9-0.5C54.9,90.6,54.3,91.5,53.7,92.2z"/>
			<path class="st0" d="M58.2,14.2L58.2,14.2c-0.4-1-0.7-1.9-1.1-2.8l-0.9,0.4c0.4,0.8,0.8,1.8,1.1,2.7L58.2,14.2z"/>
			<path class="st0" d="M61.3,34l1-0.1c-0.1-1-0.2-2-0.4-3l-1,0.1C61,32,61.2,33,61.3,34z"/>
			<path class="st0" d="M61.5,36c0,0.4,0.1,0.9,0.1,1.4c-0.2,0-0.4,0-0.6-0.1l-0.1,1c0.3,0,0.5,0,0.8,0.1c0,0.2,0,0.4,0,0.6l1-0.1
				c0-0.2,0-0.3,0-0.4c0.4,0,0.8,0.1,1.2,0.1l0.1-1c-0.4,0-0.9-0.1-1.4-0.1c0-0.5-0.1-1-0.1-1.5L61.5,36z"/>
			<path class="st0" d="M61.8,40.9c0.1,1,0.1,2,0.1,3l1,0c0-1-0.1-2-0.1-3L61.8,40.9z"/>
			<path class="st0" d="M61.8,58.9l1,0.1c0.1-1,0.1-2,0.1-3l-1,0C61.9,56.9,61.9,57.9,61.8,58.9z"/>
			<path class="st0" d="M62,53.9l1,0c0-1,0-2,0-3l-1,0C62.1,51.9,62.1,52.9,62,53.9z"/>
			<path class="st0" d="M57.9,83.4l1,0.3c0.3-0.9,0.6-1.9,0.8-2.9l-1-0.3C58.5,81.5,58.2,82.5,57.9,83.4z"/>
			<path class="st0" d="M63.1,48.9c0-1,0-2,0-3l-1,0c0,1,0,2,0,3L63.1,48.9z"/>
			<path class="st0" d="M60.2,73.7l1,0.2c0.2-1,0.3-2,0.5-3l-1-0.1C60.5,71.8,60.4,72.8,60.2,73.7z"/>
			<path class="st0" d="M60.9,68.8l1,0.1c0.1-1,0.2-2,0.4-3l-1-0.1C61.2,66.8,61.1,67.8,60.9,68.8z"/>
			<path class="st0" d="M59.2,78.6l1,0.2v0c0.2-1,0.4-1.9,0.6-3l-1-0.2C59.6,76.7,59.4,77.7,59.2,78.6z"/>
			<path class="st0" d="M56.2,88l0.9,0.4c0.4-0.9,0.8-1.8,1.1-2.8l-0.9-0.3C56.9,86.3,56.6,87.2,56.2,88z"/>
		</g>
	</g>
</g>
</svg>
