<?xml version="1.0" encoding="utf-8"?>
<!-- Generator: Adobe Illustrator 23.0.4, SVG Export Plug-In . SVG Version: 6.00 Build 0)  -->
<svg version="1.1" id="Layer_1" xmlns="http://www.w3.org/2000/svg" xmlns:xlink="http://www.w3.org/1999/xlink" x="0px" y="0px"
	 viewBox="0 0 100 100" style="enable-background:new 0 0 100 100;" xml:space="preserve">
<style type="text/css">
	.st0{fill:#D2D2D2;}
	.st1{fill:#FFFFFF;}
</style>
<circle class="st0" cx="50" cy="50" r="48"/>
<g>
	<g transform="translate(50 50) scale(0.69 0.69) rotate(0) translate(-50 -50)">
		<g>
			<path class="st1" d="M70.6,97.5H28.1c-1,0-1.9-0.8-1.9-1.9l-5.4-72.3c0-1,0.6-2.1,1.9-2.1c1,0,2.1,0.6,2.1,1.9L30,93.5h39
				l5.6-70.4c0-1,1-1.9,2.1-1.9c1,0,1.9,1,1.9,2.1l-5.6,72.3C72.5,96.7,71.7,97.5,70.6,97.5z"/>
		</g>
		<g>
			<path class="st1" d="M84.6,16.5H15.4c-1,0-1.9-0.8-1.9-1.9c-0.2-1.2,0.8-2.1,1.9-2.1h69.4c1,0,1.9,0.8,1.9,1.9
				S85.8,16.5,84.6,16.5z"/>
		</g>
		<g>
			<path class="st1" d="M40,81.2c-1,0-1.9-0.8-1.9-1.9v-49c0-1,0.8-1.9,1.9-1.9s1.9,0.8,1.9,1.9v49C41.9,80.4,41,81.2,40,81.2z"/>
		</g>
		<g>
			<path class="st1" d="M50.4,81.2c-1,0-1.9-0.8-1.9-1.9v-49c0-1,0.8-1.9,1.9-1.9c1,0,1.9,0.8,1.9,1.9v49
				C52.5,80.4,51.7,81.2,50.4,81.2z"/>
		</g>
		<g>
			<path class="st1" d="M60.6,81.2c-1,0-1.9-0.8-1.9-1.9v-49c0-1,0.8-1.9,1.9-1.9c1,0,1.9,0.8,1.9,1.9v49
				C62.5,80.4,61.7,81.2,60.6,81.2z"/>
		</g>
		<g>
			<path class="st1" d="M60.8,16.5c-1,0-1.9-0.8-1.9-1.9V6.9H41.9v7.5c0,1-0.8,1.9-1.9,1.9s-1.9-0.8-1.9-1.9V5c0-1,0.8-1.9,1.9-1.9
				h21c1,0,1.9,0.8,1.9,1.9v9.4C62.7,15.4,61.9,16.5,60.8,16.5z"/>
		</g>
	</g>
</g>
</svg>
