<svg xmlns="http://www.w3.org/2000/svg" xmlns:xlink="http://www.w3.org/1999/xlink" width="100" height="100" viewBox="0 0 100 100"><g><g transform="translate(50 50) scale(0.69 0.69) rotate(0) translate(-50 -50)" style="fill:#1a1a1a"><svg fill="#1a1a1a" xmlns="http://www.w3.org/2000/svg" xmlns:xlink="http://www.w3.org/1999/xlink" version="1.1" x="0px" y="0px" viewBox="0 0 48 48" enable-background="new 0 0 48 48" xml:space="preserve"><g><path d="M33.9,46.8H13.5c-0.5,0-0.9-0.399-0.9-0.899L10,11.2c0-0.5,0.3-1,0.9-1c0.5,0,1,0.3,1,0.9l2.5,33.8h18.7l2.7-33.8   c0-0.5,0.5-0.9,1-0.9s0.9,0.5,0.9,1L35,45.9C34.8,46.4,34.4,46.8,33.9,46.8z"></path></g><g><path d="M40.6,7.9H7.4C6.9,7.9,6.5,7.5,6.5,7C6.4,6.4,6.9,6,7.4,6h33.3C41.2,6,41.6,6.4,41.6,6.9S41.2,7.9,40.6,7.9z"></path></g><g><path d="M19.2,39c-0.5,0-0.9-0.4-0.9-0.9V14.6c0-0.5,0.4-0.9,0.9-0.9s0.9,0.4,0.9,0.9v23.5C20.1,38.6,19.7,39,19.2,39z"></path></g><g><path d="M24.2,39c-0.5,0-0.9-0.4-0.9-0.9V14.6c0-0.5,0.4-0.9,0.9-0.9s0.899,0.4,0.899,0.9v23.5C25.2,38.6,24.8,39,24.2,39z"></path></g><g><path d="M29.1,39c-0.5,0-0.899-0.4-0.899-0.9V14.6c0-0.5,0.399-0.9,0.899-0.9s0.9,0.4,0.9,0.9v23.5C30,38.6,29.6,39,29.1,39z"></path></g><g><path d="M29.2,7.9c-0.5,0-0.9-0.4-0.9-0.9V3.3h-8.2v3.6c0,0.5-0.4,0.9-0.9,0.9s-0.9-0.4-0.9-0.9V2.4c0-0.5,0.4-0.9,0.9-0.9h10.1   c0.5,0,0.9,0.4,0.9,0.9v4.5C30.1,7.4,29.7,7.9,29.2,7.9z"></path></g></svg></g></g></svg>