<?xml version="1.0" encoding="utf-8"?>
<svg version="1.1" fill="currentColor" xmlns="http://www.w3.org/2000/svg" x="0px" y="0px"
	 viewBox="0 0 100 100" style="enable-background:new 0 0 100 100;" xml:space="preserve">
<style type="text/css">
    .st0{fill:#D2D2D2;}
    .st1{fill:#FFFFFF;}
</style>
<circle class="st0" cx="50" cy="50" r="48" />
<g>
<g transform="scale(5 5)">
<g><g><g><g>
  <path class="st1" d="M2.5 10a.5.5 0 01.5.5V14a1 1 0 001 1h12a1 1 0 001-1v-3.5a.5.5 0 011 0V14a2 2 0 01-2 2H4a2 2 0 01-2-2v-3.5a.5.5 0 01.5-.5zM7 6.854a.5.5 0 00.707 0L10 4.56l2.293 2.293A.5.5 0 1013 6.146L10.354 3.5a.5.5 0 00-.708 0L7 6.146a.5.5 0 000 .708z"/>
  <path class="st1" d="M10 4a.5.5 0 01.5.5v8a.5.5 0 01-1 0v-8A.5.5 0 0110 4z"/>
</g></g></g></g></g></g>
</svg>