<?xml version="1.0" encoding="utf-8"?>
<!-- Generator: Adobe Illustrator 23.0.4, SVG Export Plug-In . SVG Version: 6.00 Build 0)  -->
<svg version="1.1" id="Layer_1" xmlns="http://www.w3.org/2000/svg" xmlns:xlink="http://www.w3.org/1999/xlink" x="0px" y="0px"
	 viewBox="0 0 100 100" style="enable-background:new 0 0 100 100;" xml:space="preserve">
<style type="text/css">
	.st0{fill:#1A1A1A;}
</style>
<g>
	<g transform="translate(50 50) scale(0.69 0.69) rotate(0) translate(-50 -50)">
		<g>
			<g>
				<g>
					<g>
						<path class="st0" d="M80.7,84.1c0-8.8-8.3-16.6-20.6-19.5c-0.1,0-0.3,0-0.4,0l-1.7-7.2c0-0.1-0.1-0.2-0.1-0.3
							c3.2-3,5.7-7.7,7-13.6c1.6-1.3,2.8-3.2,3.3-5.2c0.1,0,0.2,0,0.2,0h2.1v-5.2h-2.1c-0.1,0-0.1,0-0.2,0c-0.5-2.1-1.8-4-3.4-5.4
							c-1-4.1-2.9-7.3-5.6-9.5c-2.5-2.1-5.7-3.2-9.3-3.2c-3.5,0-6.7,1.1-9.3,3.2c-2.7,2.2-4.6,5.4-5.6,9.5c-1.6,1.4-2.9,3.2-3.4,5.3
							c-0.1,0-0.1,0-0.2,0h-2.1v5.2h2.1c0.1,0,0.1,0,0.2,0c0.5,2.1,1.7,3.9,3.4,5.3c1.2,5.8,3.7,10.5,6.8,13.4
							c-0.1,0.1-0.2,0.2-0.3,0.4l-1.4,7.1c-5.9,1.3-11,3.8-14.8,7.2c-4,3.6-6.2,7.9-6.2,12.5l0,0.7l61.4-0.1L80.7,84.1z M64.6,67.4
							c-4.4,5.5-9.2,8.3-14.2,8.3c0,0-0.1,0-0.1,0c-7.7,0-13.8-6.8-15-8.2c1.5-0.6,3.2-1.1,4.8-1.5c0.2,0.3,4.3,5.5,10,5.5
							c0,0,0,0,0.1,0c3.4,0,6.6-1.9,9.5-5.5l0,0c0,0,0,0,0,0C61.5,66.4,63.1,66.9,64.6,67.4z M69.2,34.5V37h-0.7
							c0.1-0.4,0.1-0.9,0.1-1.3c0-0.4,0-0.8-0.1-1.2H69.2z M50,16.5c6.3,0,10.9,3.6,13.1,10.1c-1.5-0.8-3.1-1.2-4.7-1.2H41.7
							c-1.7,0-3.3,0.4-4.7,1.2C39.1,20.1,43.7,16.5,50,16.5z M30.8,37v-2.5h0.6c-0.1,0.4-0.1,0.8-0.1,1.3s0,0.8,0.1,1.3H30.8z
							 M32.8,35.7c0-4.9,4-8.9,8.9-8.9h16.7c4.9,0,8.9,4,8.9,8.9c0,2.5-1,4.7-2.6,6.3l-0.7,0.6c-1.6,1.3-3.5,2-5.6,2H41.7
							c-2,0-4-0.7-5.6-2L35.4,42C33.8,40.4,32.8,38.2,32.8,35.7z M36.8,44.7c1.5,0.8,3.1,1.3,4.9,1.3h16.7c1.8,0,3.5-0.5,4.9-1.3
							C61,53.4,55.8,59.2,50,59.2S39,53.4,36.8,44.7z M43,57.9c2.1,1.7,4.5,2.6,7,2.6c2.4,0,4.8-0.9,6.8-2.5l1.7,7.3
							c-2.6,3.2-5.3,4.8-8.2,4.8c0,0,0,0,0,0c-4.2,0-7.6-3.5-8.6-4.6c0.1-0.2,0.2-0.3,0.1-0.5c0-0.1-0.1-0.2-0.1-0.2L43,57.9z
							 M20.7,83.5c0.2-3.9,2.2-7.6,5.7-10.8c2.1-1.9,4.7-3.5,7.7-4.8c0,0,0,0,0,0c0.3,0.4,7,9,16.3,9c0,0,0.1,0,0.1,0
							c5.5,0,10.7-3,15.5-9c0,0,0,0,0-0.1c7.9,3.4,13,9.1,13.4,15.5L20.7,83.5z"/>
					</g>
				</g>
			</g>
		</g>
	</g>
</g>
</svg>
