<?xml version="1.0" encoding="utf-8"?>
<!-- Generator: Adobe Illustrator 23.0.4, SVG Export Plug-In . SVG Version: 6.00 Build 0)  -->
<svg version="1.1" id="Layer_1" xmlns="http://www.w3.org/2000/svg" xmlns:xlink="http://www.w3.org/1999/xlink" x="0px" y="0px"
	 viewBox="0 0 100 100" style="enable-background:new 0 0 100 100;" xml:space="preserve">
<style type="text/css">
	.st0{fill:#D2D2D2;}
	.st1{fill:#FFFFFF;}
</style>
<circle class="st0" cx="50" cy="50" r="48"/>
<g>
	<g transform="translate(50 50) scale(0.69 0.69) rotate(0) translate(-50 -50)">
		<g>
			<path class="st1" d="M95,97.3c-0.6,0-1.2-0.2-1.9-0.8L2.9,6.2c-1-1-1-2.7,0-3.5c1-1,2.7-1,3.5,0l90.4,90.4c1,1,1,2.7,0,3.5
				C96.5,97.1,95.6,97.3,95,97.3z"/>
		</g>
		<g>
			<path class="st1" d="M4.6,97.3c-0.6,0-1.2-0.2-1.9-0.8c-1-1-1-2.7,0-3.5L93.3,2.5c1-1,2.5-1,3.5,0c1,1,1,2.7,0,3.7L6.5,96.7
				C6,97.1,5.2,97.3,4.6,97.3z"/>
		</g>
	</g>
</g>
</svg>
