<svg xmlns="http://www.w3.org/2000/svg" xmlns:xlink="http://www.w3.org/1999/xlink" width="100" height="100" viewBox="0 0 100 100"><g><g transform="translate(50 50) scale(0.69 0.69) rotate(0) translate(-50 -50)" style="fill:#1a1a1a"><svg fill="#1a1a1a" xmlns="http://www.w3.org/2000/svg" xmlns:xlink="http://www.w3.org/1999/xlink" version="1.1" x="0px" y="0px" viewBox="0 0 48 48" enable-background="new 0 0 48 48" xml:space="preserve"><g><path d="M45.6,46.7c-0.3,0-0.6-0.101-0.899-0.4L1.4,3c-0.5-0.5-0.5-1.3,0-1.7c0.5-0.5,1.3-0.5,1.7,0l43.4,43.4   c0.5,0.5,0.5,1.3,0,1.7C46.3,46.6,45.9,46.7,45.6,46.7z"></path></g><g><path d="M2.2,46.7c-0.3,0-0.6-0.101-0.9-0.4c-0.5-0.5-0.5-1.3,0-1.7L44.8,1.2c0.5-0.5,1.2-0.5,1.7,0s0.5,1.3,0,1.8L3.1,46.4   C2.9,46.6,2.5,46.7,2.2,46.7z"></path></g></svg></g></g></svg>